Coordinates
version=1
nRows=32
nColumns=18
inDegrees=yes

Units are S.I. units (second, meters, Newtons, ...)
Angles are in degrees.

endheader
time	ground_thorax_rot_x	ground_thorax_rot_y	ground_thorax_rot_z	ground_thorax_tx	ground_thorax_ty	ground_thorax_tz	clav_prot	clav_elev	scapula_abduction	scapula_elevation	scapula_upward_rot	scapula_winging	plane_elv	shoulder_elv	axial_rot	elbow_flexion	pro_sup
      1.77000000	      0.18654100	     -8.45213056	    -10.84304664	     -0.00423131	      0.00403036	     -0.00078352	    -32.86989362	     10.06332379	      8.41330177	     -1.24642759	     68.94802304	     -8.16994312	     48.69928995	     79.57053487	     -8.93620260	      0.00000000	     34.32000000
      1.78000000	      0.00641066	     -8.56913817	    -10.73840404	     -0.00423131	      0.00403036	     -0.00078352	    -32.98489130	     10.15935391	      8.30808665	     -1.18371318	     69.09613571	     -8.21642898	     48.43517986	     79.96456819	     -8.91797782	      0.00000000	     34.32000000
      1.79000000	      0.26829597	     -8.65340651	    -10.77892384	     -0.00423131	      0.00403036	     -0.00078352	    -33.23628663	     10.45661641	      8.23133517	     -0.97759683	     69.62482775	     -8.31918334	     48.15949837	     80.42471413	     -8.91914138	      0.00000000	     34.32000000
      1.80000000	      0.23443702	     -8.44259645	    -10.80360107	     -0.00423131	      0.00403036	     -0.00078352	    -33.53529092	     10.34985162	      7.89069450	     -1.06568938	     69.82075645	     -8.39296196	     47.95535118	     80.87721651	     -8.74585646	      0.00000000	     34.32000000
      1.81000000	      0.29226253	     -8.20397331	    -10.73374660	     -0.00423131	      0.00403036	     -0.00078352	    -33.82362459	     10.25991919	      7.58391157	     -1.14022893	     70.03845760	     -8.46646217	     47.85162580	     81.19277815	     -8.43723140	      0.00000000	     34.32000000
      1.82000000	      0.26803796	     -8.11536919	    -10.60279173	     -0.00423131	      0.00403036	     -0.00078352	    -33.93337095	     10.27061694	      7.50521595	     -1.13506628	     70.17961945	     -8.49771688	     47.52978311	     81.44924910	     -8.39530700	      0.00000000	     34.32000000
      1.83000000	      0.26014795	     -7.87037837	    -10.74953275	     -0.00423131	      0.00403036	     -0.00078352	    -34.39344869	     10.06797251	      7.04835847	     -1.29282494	     70.54545718	     -8.60562119	     47.33649778	     81.65020445	     -8.10633687	      0.00000000	     34.32000000
      1.84000000	      0.21953875	     -7.68140617	    -10.75045673	     -0.00423131	      0.00403036	     -0.00078352	    -34.70494677	      9.96337402	      6.72901738	     -1.37712245	     70.79075457	     -8.68668489	     47.05131908	     81.89618071	     -7.84652021	      0.00000000	     34.32000000
      1.85000000	      0.23025089	     -7.54841222	    -10.71337856	     -0.00423131	      0.00403036	     -0.00078352	    -34.92546286	      9.87693220	      6.62841650	     -1.43746817	     71.10842273	     -8.73097974	     46.69731815	     82.19795863	     -7.72880193	      0.00000000	     34.32000000
      1.86000000	      0.29111274	     -7.44532167	    -10.65149449	     -0.00423131	      0.00403036	     -0.00078352	    -35.14195270	      9.88965496	      6.54239451	     -1.42700760	     71.46597895	     -8.78996368	     46.43022220	     82.56329599	     -7.73912197	      0.00000000	     34.32000000
      1.87000000	      0.40553672	     -7.46116362	    -10.53868473	     -0.00423131	      0.00403036	     -0.00078352	    -35.35904597	     10.05504850	      6.46525134	     -1.30824471	     71.88310202	     -8.87387517	     46.22082391	     82.75494477	     -7.74139095	      0.00000000	     34.32000000
      1.88000000	      0.34282702	     -7.24047947	    -10.60013526	     -0.00423131	      0.00403036	     -0.00078352	    -35.76908581	      9.90645637	      5.89309577	     -1.43537489	     72.02139968	     -9.00239093	     46.20672642	     83.00565732	     -7.45918290	      0.00000000	     34.32000000
      1.89000000	      0.44609688	     -7.15640093	    -10.46230692	     -0.00423131	      0.00403036	     -0.00078352	    -36.06413962	     10.12890698	      5.52438687	     -1.29309579	     72.27460529	     -9.14838817	     46.01580812	     83.02875282	     -7.15434494	      0.00000000	     34.32000000
      1.90000000	      0.47671553	     -7.15894267	    -10.44592514	     -0.00423131	      0.00403036	     -0.00078352	    -36.20508165	     10.27984654	      5.45555839	     -1.18590570	     72.53756470	     -9.21399728	     45.51819933	     83.31863291	     -7.20832518	      0.00000000	     34.32000000
      1.91000000	      0.53105950	     -7.11760751	    -10.38384727	     -0.00423131	      0.00403036	     -0.00078352	    -36.43695299	     10.47017492	      5.28899090	     -1.05366003	     72.88845529	     -9.31826301	     45.17003386	     83.61492419	     -7.36438966	      0.00000000	     34.32000000
      1.92000000	      0.50130590	     -7.06246711	    -10.37139142	     -0.00423131	      0.00403036	     -0.00078352	    -36.68070877	     10.33963790	      5.14802391	     -1.14320575	     73.19285734	     -9.37197194	     44.94979961	     83.86035074	     -7.39271888	      0.00000000	     34.32000000
      1.93000000	      0.18590687	     -6.68093100	    -10.69448484	     -0.00423131	      0.00403036	     -0.00078352	    -37.02932825	      9.52652293	      4.63884167	     -1.73488955	     73.06113477	     -9.37582927	     44.85796293	     84.50529893	     -6.94434522	      0.00000000	     34.32000000
      1.94000000	      0.11726794	     -6.69309458	    -10.44673394	     -0.00423131	      0.00403036	     -0.00078352	    -37.06707310	      9.52122251	      4.63821928	     -1.73656086	     73.13851540	     -9.38412913	     44.81245078	     84.58530681	     -6.94517994	      0.00000000	     34.32000000
      1.95000000	      0.48207821	     -6.49466309	    -10.30763281	     -0.00423131	      0.00403036	     -0.00078352	    -37.59249398	      9.89033564	      4.37505635	     -1.46743065	     74.05013992	     -9.61262574	     44.60002533	     84.25904103	     -7.26405639	      0.00000000	     34.32000000
      1.96000000	      0.56327886	     -6.31098419	    -10.24881779	     -0.00423131	      0.00403036	     -0.00078352	    -37.96448175	     10.03178507	      3.99723109	     -1.37561077	     74.42731454	     -9.77877002	     44.57716147	     84.53434434	     -7.48603683	      0.00000000	     34.32000000
      1.97000000	      0.63993701	     -6.19739953	    -10.16587865	     -0.00423131	      0.00403036	     -0.00078352	    -38.34509093	     10.15193336	      3.61838390	     -1.29766849	     74.81452340	     -9.94641199	     44.55529142	     84.75128213	     -7.70328860	      0.00000000	     34.32000000
      1.98000000	      0.61292874	     -6.19920747	    -10.15431475	     -0.00423131	      0.00403036	     -0.00078352	    -38.54749679	     10.02879822	      3.62645454	     -1.36821966	     75.21435800	     -9.97542618	     44.22086696	     84.78534946	     -7.74957675	      0.00000000	     34.32000000
      1.99000000	      0.49571048	     -5.89648224	    -10.20792130	     -0.00423131	      0.00403036	     -0.00078352	    -38.89580956	      9.77169714	      3.30020979	     -1.55229189	     75.47546986	    -10.06477605	     44.01755678	     84.80891014	     -7.78647047	      0.00000000	     34.32000000
      2.00000000	      0.57452906	     -5.78054078	    -10.05889470	     -0.00423131	      0.00403036	     -0.00078352	    -39.14105547	      9.89549468	      3.22933999	     -1.45109231	     75.95093127	    -10.16009598	     43.86966789	     84.71737722	     -8.07458490	      0.00000000	     34.32000000
      2.01000000	      0.62950099	     -5.77157826	     -9.96188571	     -0.00423131	      0.00403036	     -0.00078352	    -39.32363916	      9.97257024	      3.23442413	     -1.37973236	     76.37126375	    -10.21938558	     43.85044979	     84.92368947	     -8.33990830	      0.00000000	     34.32000000
      2.02000000	      0.66671824	     -5.77142913	     -9.93924533	     -0.00423131	      0.00403036	     -0.00078352	    -39.51905874	      9.96551796	      3.21619390	     -1.36793308	     76.76423638	    -10.27017573	     43.85529308	     85.27236019	     -8.61295552	      0.00000000	     34.32000000
      2.03000000	      0.65356630	     -5.64621774	     -9.95443012	     -0.00423131	      0.00403036	     -0.00078352	    -39.77311156	      9.87446152	      3.10070001	     -1.41916412	     77.13708727	    -10.33626835	     43.74054196	     85.48793906	     -8.91609097	      0.00000000	     34.32000000
      2.04000000	      0.59212892	     -5.48663904	     -9.96089047	     -0.00423131	      0.00403036	     -0.00078352	    -39.96034877	      9.73256637	      3.03679607	     -1.50701971	     77.41459140	    -10.36823369	     43.52902825	     85.55485736	     -8.96627573	      0.00000000	     34.32000000
      2.05000000	      0.43379065	     -5.17129296	    -10.08755407	     -0.00423131	      0.00403036	     -0.00078352	    -40.22776165	      9.39536375	      2.75310342	     -1.74867253	     77.53078813	    -10.41975602	     43.40228728	     85.60570306	     -8.82754544	      0.00000000	     34.32000000
      2.06000000	      0.42891717	     -5.12486109	    -10.05755709	     -0.00423131	      0.00403036	     -0.00078352	    -40.31468482	      9.35192554	      2.71762478	     -1.77397979	     77.65992179	    -10.43952053	     43.27512467	     85.65991473	     -8.72003963	      0.00000000	     34.32000000
      2.07000000	      0.63169210	     -5.28977158	     -9.93367085	     -0.00423131	      0.00403036	     -0.00078352	    -40.31509205	      9.64264853	      2.94517245	     -1.54211572	     78.03520763	    -10.45566129	     42.96310074	     85.71979434	     -8.89875667	      0.00000000	     34.32000000
      2.08000000	      0.53154482	     -5.33604783	     -9.78439498	     -0.00423131	      0.00403036	     -0.00078352	    -40.35454139	      9.62750255	      2.93299092	     -1.54961469	     78.10022723	    -10.46500398	     42.92702400	     85.85500917	     -8.89604553	      0.00000000	     34.32000000
